{"title":"Chicago PD Complete S01 HDTV XviD FUM(Embeded Gr subtitle)","uid":10883845,"size":5913290752,"categoryP":"video","categoryS":"tv_shows","magnet":"?xt=urn:btih:565ac68b702a10e5c24a8cef244ca11e2c2d04ed&amp;dn=Chicago+PD+Complete+S01+HDTV+XviD+FUM%28Embeded+Gr+subtitle%29&amp;tr=udp%3A%2F%2Ftracker.openbittorrent.com%3A80&amp;tr=udp%3A%2F%2Fopen.demonii.com%3A1337&amp;tr=udp%3A%2F%2Ftracker.coppersurfer.tk%3A6969&amp;tr=udp%3A%2F%2Fexodus.desync.com%3A6969","seeders":1,"leechers":0,"uploader":"ellobo478","files":15,"time":1409064233,"description":"[IMG]http://i.imgur.com/tGgAqoT.jpg[/IMG]\n\n[IMG]http://i.imgur.com/eytRSom.jpg[/IMG]\n\n[IMG]http://i.imgur.com/yPVISdS.jpg[/IMG]\n\nGeneral\nComplete name      :Chicago PD S01E01 HDTV XviD-FUM.avi\nFormat             : AVI\nFormat/Info        : Audio Video Interleave\nFile size          : 348 MiB\nDuration           : 42mn 58s\nOverall bit rate   : 1 132 Kbps\nWriting application: VirtualDubMod 1.5.10.2 (build 2542/release)\nWriting library    : VirtualDubMod build 2542/release\n\nVideo\nID                 : 0\nFormat             : MPEG-4 Visual\nFormat profile     : Advanced Simple@L5\nFormat settings, BVOP: 1\nFormat settings, QPel: No\nFormat settings, GMC : No warppoints\nFormat settings, Matrix: Default (H.263)\nMuxing mode            : Packed bitstream\nCodec ID               : XVID\nCodec ID/Hint          : XviD\nDuration               : 42mn 58s\nBit rate               : 995 Kbps\nWidth                  : 624 pixels\nHeight                 : 350 pixels\nDisplay aspect ratio   : 16:9\nFrame rate             : 23.976 fps\nColor space            : YUV\nChroma subsampling     : 4:2:0\nBit depth              : 8 bits\nScan type              : Progressive\nCompression mode       : Lossy\nBits/(Pixel*Frame)     : 0.190\nStream size            : 306 MiB (88%)\nWriting library        : XviD 64\n\nAudio\nID                     : 1\nFormat                 : MPEG Audio\nFormat version         : Version 1\nFormat profile         : Layer 3\nMode                   : Joint stereo\nMode extension         : MS Stereo\nCodec ID               : 55\nCodec ID/Hint          : MP3\nDuration               : 42mn 58s\nBit rate mode          : Constant\nBit rate               : 128 Kbps\nChannel(s)             : 2 channels\nSampling rate          : 44.1 KHz\nCompression mode       : Lossy\nStream size            : 39.3 MiB (11%)\nAlignment              : Split accross interleaves\nInterleave, duration   : 42 ms (1.00 video frame)\nInterleave, preload duration: 500 ms","torrent":{"xt":"urn:btih:565ac68b702a10e5c24a8cef244ca11e2c2d04ed","amp;dn":"Chicago+PD+Complete+S01+HDTV+XviD+FUM%28Embeded+Gr+subtitle%29","amp;tr":["udp%3A%2F%2Ftracker.openbittorrent.com%3A80","udp%3A%2F%2Fopen.demonii.com%3A1337","udp%3A%2F%2Ftracker.coppersurfer.tk%3A6969","udp%3A%2F%2Fexodus.desync.com%3A6969"],"infoHash":"565ac68b702a10e5c24a8cef244ca11e2c2d04ed","infoHashBuffer":{"type":"Buffer","data":[86,90,198,139,112,42,16,229,194,74,140,239,36,76,161,30,44,45,4,237]},"announce":[],"urlList":[]}}